<?xml version="1.0" standalone="no"?>
<!DOCTYPE svg PUBLIC "-//W3C//DTD SVG 20010904//EN"
 "http://www.w3.org/TR/2001/REC-SVG-20010904/DTD/svg10.dtd">
<svg version="1.0" xmlns="http://www.w3.org/2000/svg"
 width="1440.000000pt" height="1440.000000pt" viewBox="0 0 1440.000000 1440.000000"
 preserveAspectRatio="xMidYMid meet">
<metadata>
Created by potrace 1.14, written by Peter Selinger 2001-2017
</metadata>
<g transform="translate(0.000000,1440.000000) scale(0.100000,-0.100000)"
fill="#000000" stroke="none">
<path d="M6898 14395 c-2 -1 -61 -6 -133 -9 -71 -4 -146 -9 -165 -11 -19 -2
-64 -6 -100 -10 -133 -13 -157 -15 -232 -25 -76 -11 -106 -15 -178 -26 -19 -3
-46 -7 -60 -9 -14 -2 -25 -4 -25 -5 0 -1 -16 -3 -35 -6 -19 -2 -55 -8 -80 -14
-25 -5 -70 -14 -100 -19 -30 -6 -64 -12 -75 -15 -11 -2 -63 -14 -115 -26 -52
-12 -103 -23 -112 -26 -10 -2 -26 -6 -35 -8 -48 -11 -229 -61 -317 -88 -54
-16 -106 -31 -115 -33 -61 -15 -419 -146 -571 -210 -132 -55 -344 -150 -370
-165 -24 -15 -94 -47 -104 -47 -5 -1 -12 -5 -15 -10 -3 -4 -55 -33 -116 -63
-60 -30 -112 -58 -115 -61 -3 -4 -25 -17 -50 -29 -25 -12 -47 -25 -50 -29 -3
-3 -30 -19 -60 -35 -30 -16 -79 -44 -108 -62 -28 -19 -53 -33 -55 -31 -1 1 -9
-4 -17 -11 -19 -17 -210 -142 -217 -142 -3 0 -19 -11 -37 -25 -44 -36 -43 -35
-136 -100 -76 -53 -257 -190 -270 -204 -3 -3 -30 -25 -60 -48 -30 -23 -64 -50
-75 -60 -24 -21 -138 -119 -179 -154 -128 -108 -523 -504 -614 -617 -19 -22
-44 -52 -55 -65 -58 -64 -88 -99 -157 -187 -41 -52 -77 -97 -80 -100 -3 -3
-23 -30 -45 -60 -22 -30 -45 -59 -52 -63 -7 -4 -13 -15 -13 -22 0 -8 -4 -15
-10 -15 -5 0 -10 -5 -10 -11 0 -6 -6 -17 -12 -24 -29 -32 -41 -49 -130 -182
-129 -193 -228 -350 -287 -458 -12 -22 -37 -67 -56 -100 -19 -33 -63 -116 -97
-185 -35 -69 -66 -126 -70 -128 -5 -2 -8 -7 -8 -12 0 -5 -22 -56 -50 -115 -27
-59 -50 -108 -50 -110 0 -3 -12 -30 -26 -62 -14 -32 -33 -74 -41 -93 -9 -19
-22 -49 -29 -67 -8 -17 -14 -37 -14 -45 0 -8 -4 -18 -8 -23 -8 -9 -93 -229
-94 -242 0 -1 -17 -52 -38 -113 -22 -61 -39 -112 -40 -115 0 -3 -3 -10 -5 -17
-4 -13 -53 -181 -60 -208 -45 -172 -57 -217 -60 -230 -2 -8 -8 -35 -15 -60 -7
-25 -14 -54 -15 -65 -2 -11 -13 -65 -24 -120 -12 -55 -24 -111 -26 -125 -3
-14 -7 -34 -9 -45 -4 -20 -40 -249 -50 -317 -3 -21 -8 -62 -11 -90 -6 -51 -8
-70 -20 -183 -23 -209 -29 -367 -29 -700 0 -324 9 -539 29 -725 3 -25 8 -67
11 -95 3 -27 7 -61 9 -75 3 -14 7 -50 11 -80 6 -60 9 -77 19 -130 3 -19 8 -46
10 -60 8 -65 28 -175 56 -306 11 -55 23 -110 25 -124 3 -14 21 -86 40 -160 19
-74 36 -142 38 -150 11 -45 29 -106 47 -162 11 -35 22 -70 24 -79 7 -34 29
-104 35 -114 3 -5 12 -30 19 -55 7 -25 17 -53 22 -62 5 -10 9 -23 9 -29 0 -6
6 -25 14 -42 7 -18 18 -45 24 -62 18 -50 113 -287 137 -340 12 -27 33 -75 46
-105 49 -118 269 -545 324 -630 12 -19 25 -45 29 -58 4 -12 12 -22 17 -22 5 0
9 -5 9 -10 0 -6 16 -36 35 -66 19 -30 35 -58 35 -63 0 -5 3 -11 8 -13 11 -5
51 -65 62 -93 5 -14 14 -25 20 -25 5 0 10 -4 10 -10 0 -8 35 -66 57 -95 35
-44 83 -117 83 -124 0 -5 4 -11 8 -13 5 -1 33 -37 62 -78 51 -73 151 -201 177
-228 7 -7 13 -16 13 -20 0 -4 13 -21 28 -38 15 -17 46 -53 69 -80 23 -27 50
-58 60 -70 10 -12 38 -45 63 -74 97 -115 318 -342 492 -505 94 -89 121 -113
223 -200 39 -33 72 -62 75 -65 3 -3 52 -43 110 -88 58 -46 115 -92 126 -102
12 -11 25 -20 28 -20 4 0 17 -9 29 -21 12 -11 45 -35 72 -54 28 -18 61 -42 74
-54 13 -12 30 -21 38 -21 8 0 12 -4 8 -9 -3 -5 0 -11 7 -13 7 -2 72 -42 145
-90 73 -49 136 -88 142 -88 5 0 11 -4 13 -8 4 -11 135 -92 148 -92 5 0 10 -4
10 -9 0 -5 10 -13 23 -17 12 -4 40 -18 61 -32 56 -35 128 -74 226 -124 47 -24
87 -46 88 -50 2 -5 9 -8 16 -8 7 0 37 -13 67 -29 56 -31 336 -161 354 -166 6
-1 30 -11 55 -22 113 -50 465 -179 610 -223 41 -12 82 -25 90 -28 8 -3 20 -6
25 -7 6 -2 42 -12 80 -23 106 -31 458 -117 520 -127 17 -3 77 -14 135 -25 141
-26 238 -41 425 -65 28 -3 64 -8 80 -10 17 -2 59 -7 95 -10 36 -3 85 -8 110
-11 251 -25 969 -25 1205 1 46 5 140 14 205 20 25 3 80 10 122 15 99 14 122
17 183 25 28 3 57 8 65 10 8 2 31 7 50 10 38 6 235 44 260 50 8 2 48 11 88 19
41 9 119 28 175 42 56 14 109 27 117 29 38 8 333 97 400 120 41 15 82 28 90
30 15 3 106 37 145 54 11 5 43 17 70 27 87 30 345 139 470 198 66 31 120 56
120 54 0 -1 16 7 35 18 32 20 233 127 305 162 17 9 32 18 35 21 3 3 19 13 35
21 17 8 32 18 35 21 3 3 37 23 75 44 39 21 71 42 73 46 2 5 9 9 16 9 6 0 21 7
31 15 11 9 65 45 120 80 120 77 174 114 251 172 5 4 17 13 26 18 68 44 128 89
128 96 0 5 7 9 15 9 8 0 20 9 27 20 7 11 17 20 21 20 5 0 15 6 22 12 8 7 20
18 27 23 143 114 218 176 244 200 17 17 50 46 74 65 67 54 201 181 350 332
193 195 207 211 421 459 75 86 262 331 335 436 37 54 74 104 82 110 9 7 13 13
9 13 -5 0 -3 6 3 13 56 64 336 531 415 692 17 33 33 62 38 63 4 2 7 8 7 12 0
5 38 88 85 184 47 96 85 177 85 180 0 3 11 30 25 60 30 66 48 109 49 118 1 3
4 10 9 14 4 4 7 13 7 19 0 7 10 34 22 61 12 27 23 54 24 59 2 9 47 130 61 165
3 8 7 20 9 25 1 6 21 66 44 135 23 68 43 129 44 135 1 5 11 37 21 70 10 33 20
65 21 70 30 113 87 335 90 350 2 11 17 83 33 160 17 77 33 160 37 185 6 45 9
64 19 110 6 31 12 72 20 130 3 25 10 74 15 110 9 65 17 130 25 225 3 28 7 70
10 95 19 185 27 829 12 1050 -9 141 -17 239 -22 275 -2 17 -7 57 -10 90 -3 33
-10 92 -16 130 -5 39 -12 88 -14 110 -3 22 -8 53 -11 68 -3 16 -7 38 -9 50 -4
28 -23 144 -30 177 -3 14 -9 48 -15 75 -11 59 -13 69 -34 156 -8 37 -17 78
-20 90 -2 13 -11 51 -20 85 -8 33 -18 71 -20 85 -2 13 -5 24 -6 24 -1 0 -3 7
-5 15 -4 15 -26 91 -79 275 -15 50 -31 99 -36 110 -5 11 -14 38 -21 60 -6 22
-16 49 -20 60 -5 11 -18 47 -29 80 -12 33 -25 69 -30 80 -4 11 -29 74 -55 140
-26 66 -53 134 -60 151 -8 16 -27 59 -43 95 -16 35 -30 67 -30 72 -1 4 -38 79
-82 166 -44 87 -80 163 -80 169 0 6 -3 12 -8 14 -4 2 -21 30 -38 63 -43 84
-177 315 -239 410 -104 161 -108 168 -126 203 -7 12 -16 22 -21 22 -4 0 -8 6
-8 14 0 8 -3 16 -7 18 -12 5 -63 75 -63 86 0 6 -4 12 -8 14 -5 2 -33 37 -62
78 -29 41 -78 107 -109 145 -30 39 -59 75 -63 80 -17 23 -114 142 -135 165
-12 14 -31 36 -43 50 -67 79 -132 152 -186 207 -33 35 -59 63 -57 63 10 0
-364 361 -451 435 -33 28 -69 59 -80 70 -12 12 -82 69 -156 128 -74 59 -145
117 -156 127 -12 11 -26 20 -32 20 -6 0 -12 4 -14 8 -2 5 -28 26 -58 48 -60
42 -64 45 -99 74 -13 11 -28 20 -33 20 -5 0 -15 6 -23 13 -22 20 -52 44 -61
48 -5 2 -62 39 -126 82 -65 42 -122 77 -127 77 -5 0 -11 4 -13 9 -5 13 -306
186 -463 265 -77 39 -142 74 -145 77 -3 3 -22 12 -42 20 -21 7 -38 17 -38 21
0 4 -8 8 -18 8 -10 0 -22 4 -27 9 -10 9 -213 102 -230 105 -5 1 -19 7 -30 12
-11 6 -69 30 -130 53 -132 52 -142 55 -179 70 -16 7 -70 25 -120 42 -50 17
-100 34 -111 39 -24 10 -186 60 -206 64 -8 1 -45 12 -84 23 -213 64 -583 146
-830 183 -38 6 -81 13 -95 15 -14 2 -47 6 -75 9 -27 4 -61 8 -75 11 -26 4
-118 15 -180 20 -19 2 -71 6 -115 10 -44 4 -102 9 -130 11 -65 5 -762 13 -767
9z"/>
</g>
</svg>
